<svg width="220" height="44" viewBox="0 0 220 44" fill="none" xmlns="http://www.w3.org/2000/svg">
  <rect width="220" height="44" rx="8" fill="#F3EEE6"/>
  <path d="M24 31L31.5 13H34.8L42.3 31H38.8L37.1 26.6H29.1L27.4 31H24ZM30.2 23.9H36L33.1 16.5L30.2 23.9Z" fill="#191714"/>
  <path d="M46.2 31V13H54.5C56.3 13 57.7 13.4 58.7 14.3C59.8 15.2 60.3 16.4 60.3 17.9C60.3 19.9 59.4 21.4 57.7 22.2C59.9 22.9 61 24.5 61 26.8C61 28.2 60.5 29.4 59.5 30.2C58.5 30.7 57.2 31 55.6 31H46.2ZM49.5 20.5H54.1C55.1 20.5 55.8 20.3 56.3 19.9C56.8 19.5 57 18.9 57 18.1C57 17.4 56.8 16.8 56.3 16.4C55.8 16 55 15.8 54 15.8H49.5V20.5ZM49.5 28.2H55C56.1 28.2 56.9 28 57.4 27.6C57.9 27.2 58.2 26.6 58.2 25.7C58.2 24.8 57.9 24.2 57.4 23.8C56.8 23.4 56 23.2 55 23.2H49.5V28.2Z" fill="#191714"/>
  <path d="M72 31.4C70.3 31.4 68.8 31 67.5 30.3C66.2 29.5 65.2 28.5 64.5 27.2C63.8 25.9 63.4 24.4 63.4 22.7C63.4 21 63.8 19.5 64.5 18.2C65.3 16.9 66.3 15.9 67.6 15.2C68.9 14.4 70.4 14 72.1 14C73.8 14 75.3 14.4 76.6 15.2C78 16 79 17.1 79.7 18.4L76.8 20C76.4 19.2 75.8 18.6 75 18.1C74.2 17.7 73.3 17.4 72.2 17.4C70.7 17.4 69.5 17.9 68.5 18.9C67.5 19.9 67 21.2 67 22.7C67 24.2 67.5 25.5 68.5 26.5C69.5 27.5 70.7 28 72.2 28C73.3 28 74.2 27.8 75 27.3C75.8 26.8 76.4 26.2 76.8 25.4L79.7 27C79 28.4 78 29.4 76.6 30.2C75.3 31 73.8 31.4 72 31.4Z" fill="#191714"/>
  <path d="M97 16H105.6C110 16 113 18.9 113 23.5C113 28.1 110 31 105.6 31H97V16ZM100.2 18.9V28.1H105.6C108 28.1 109.7 26.3 109.7 23.5C109.7 20.7 108 18.9 105.6 18.9H100.2Z" fill="#191714"/>
  <path d="M116.2 31V16H119.4V31H116.2Z" fill="#191714"/>
  <path d="M123.5 31V16H126.7L134.2 25.9V16H137.4V31H134.2L126.7 21.1V31H123.5Z" fill="#191714"/>
  <path d="M141.5 31V16H151.6V18.9H144.7V22.1H151.4V24.9H144.7V28.1H151.6V31H141.5Z" fill="#191714"/>
  <path d="M155.3 31V16H158.5V28.1H165V31H155.3Z" fill="#191714"/>
</svg>
